HIERARCHY
ROOT Hips
{
  OFFSET 263.056 91.6644 -274.608
  CHANNELS 6 Xposition Yposition Zposition Zrotation Xrotation Yrotation
  JOINT LeftUpLeg
  {
    OFFSET 8.64259 1.95398 -2.38835
    CHANNELS 3 Zrotation Xrotation Yrotation
    JOINT LeftLeg
    {
      OFFSET 43.7702 0 0
      CHANNELS 3 Zrotation Xrotation Yrotation
      JOINT LeftFoot
      {
        OFFSET 40.6238 0 0
        CHANNELS 3 Zrotation Xrotation Yrotation
        JOINT LeftToeBase
        {
          OFFSET 12.7242 0 0
          CHANNELS 3 Zrotation Xrotation Yrotation
          End Site
          {
            OFFSET 0 0 0
          }
        }
      }
    }
  }
  JOINT RightUpLeg
  {
    OFFSET -8.2249 1.95398 -2.59336
    CHANNELS 3 Zrotation Xrotation Yrotation
    JOINT RightLeg
    {
      OFFSET 43.5653 0 0
      CHANNELS 3 Zrotation Xrotation Yrotation
      JOINT RightFoot
      {
        OFFSET 40.6238 0 0
        CHANNELS 3 Zrotation Xrotation Yrotation
        JOINT RightToeBase
        {
          OFFSET 12.7242 0 0
          CHANNELS 3 Zrotation Xrotation Yrotation
          End Site
          {
            OFFSET 0 0 0
          }
        }
      }
    }
  }
  JOINT Spine
  {
    OFFSET 0.165834 0.87714 6.61349
    CHANNELS 3 Zrotation Xrotation Yrotation
    JOINT Spine1
    {
      OFFSET 7.38963 1.71661e-005 0
      CHANNELS 3 Zrotation Xrotation Yrotation
      JOINT Spine2
      {
        OFFSET 11.9445 1.14441e-005 0
        CHANNELS 3 Zrotation Xrotation Yrotation
        JOINT Spine3
        {
          OFFSET 14.7254 4.19617e-005 0
          CHANNELS 3 Zrotation Xrotation Yrotation
          JOINT Spine4
          {
            OFFSET 10.9679 0 0
            CHANNELS 3 Zrotation Xrotation Yrotation
            JOINT RightShoulder
            {
              OFFSET 2.46616 -1.6653 3.69651
              CHANNELS 3 Zrotation Xrotation Yrotation
              JOINT RightArm
              {
                OFFSET 13.0012 0 0
                CHANNELS 3 Zrotation Xrotation Yrotation
                JOINT RightForeArm
                {
                  OFFSET 28.7848 1.52588e-005 0
                  CHANNELS 3 Zrotation Xrotation Yrotation
                  JOINT RightHand
                  {
                    OFFSET 26.5688 1.52588e-005 0
                    CHANNELS 3 Zrotation Xrotation Yrotation
                    End Site
                    {
                      OFFSET 0 0 0
                    }
                  }
                }
              }
            }
            JOINT LeftShoulder
            {
              OFFSET 2.38034 -1.29275 -3.7523
              CHANNELS 3 Zrotation Xrotation Yrotation
              JOINT LeftArm
              {
                OFFSET 16.3182 6.10352e-005 0
                CHANNELS 3 Zrotation Xrotation Yrotation
                JOINT LeftForeArm
                {
                  OFFSET 27.0901 0 0
                  CHANNELS 3 Zrotation Xrotation Yrotation
                  JOINT LeftHand
                  {
                    OFFSET 24.5451 1.52588e-005 0
                    CHANNELS 3 Zrotation Xrotation Yrotation
                    End Site
                    {
                      OFFSET 0 0 0
                    }
                  }
                }
              }
            }
            JOINT Neck
            {
              OFFSET 5.0226 -0.0266342 0
              CHANNELS 3 Zrotation Xrotation Yrotation
              JOINT Head
              {
                OFFSET 6.69364 2.86102e-005 0
                CHANNELS 3 Zrotation Xrotation Yrotation
                End Site
                {
                  OFFSET 0 0 0
                }
              }
            }
          }
        }
      }
    }
  }
}
MOTION
Frames:	14
Frame Time:	0.0416667
37.3404 97.398 -246.833 -74.2701 -87.1849 -75.0142 -173.471 4.24511 86.8811 -14.0856 14.3527 -1.51471 61.0773 7.18744 14.2497 37.4651 8.97835 -13.9278 178.521 4.40268 90.73 -17.746 1.05388 -2.03313 69.1953 -3.30014 -1.74946 33.4058 0.126417 7.11559 -0.0381165 7.4043 -89.7091 12.0663 0.0617832 0.575365 0.395294 0.0870501 0.572085 -22.1391 -0.113992 0.567339 -2.12643 -0.114005 0.567319 82.0915 -47.3273 -113.794 28.8232 -25.9095 7.47894 -32.768 -13.3799 -67.425 -7.6499 -1.22583 3.34752 -102.17 -41.2354 57.0868 -28.6225 22.6583 6.47101 29.6659 10.0623 -73.9924 11.2352 2.06947 13.8058 9.49588 -7.34396 3.37913 -3.15348 -7.92585 -1.44418 
37.5364 97.4392 -246.972 -147.87 -88.8193 -149.446 -174.357 2.06757 86.1776 -13.0396 15.8298 -1.04599 60.2008 7.04511 14.8087 37.5316 9.02572 -14.1481 177.155 2.863 89.7034 -18.4751 1.59922 -1.37414 69.6316 -3.18649 -1.67639 33.1137 0.110782 6.31866 -0.357456 7.5849 -89.5833 11.7081 -0.515416 0.882204 0.0368575 -0.476103 0.904025 -22.4971 -0.756733 0.686523 -2.48448 -0.756733 0.686528 82.3386 -46.782 -113.624 23.7138 -36.5334 2.50743 -40.5945 -0.585407 -76.6819 7.92804 -0.570132 -6.16698 -100.938 -40.9765 58.8944 -25.8747 29.3583 3.87585 36.821 -1.12764 -84.0367 14.7587 2.0419 9.65324 9.09484 -9.63643 2.93647 -3.09398 -10.0621 -1.4874 
37.2082 97.4163 -247.124 -70.3712 -87.7045 -70.6952 -173.532 4.45998 87.2814 -14.275 14.9787 -1.24902 61.182 7.18526 14.3357 37.1353 8.71703 -13.3167 178.513 4.16929 91.0043 -17.1278 1.57953 -1.67377 68.9468 -3.23688 -1.72404 32.7887 0.052881 6.99837 -0.230079 7.33807 -89.7203 12.198 -0.324995 0.59295 0.526883 -0.298587 0.606673 -22.0075 -0.488177 0.467867 -1.99489 -0.488176 0.467865 83.7495 -45.6983 -111.834 18.2603 -43.0936 -3.85687 -26.3695 5.06461 -92.7902 20.3512 1.44811 5.17539 -99.9368 -40.4629 60.2463 -24.2753 29.8251 2.08142 31.9759 -9.11488 -92.8073 11.7993 1.19564 5.8757 9.70468 -8.41776 2.74076 -3.92149 -8.82859 -1.62274 
36.923 97.4823 -247.144 -67.9247 -85.8211 -68.4035 -173.216 4.87971 87.4634 -13.5351 13.8866 -1.61722 60.7252 6.72586 14.6727 37.5534 9.0735 -13.5265 178.619 5.13532 91.0525 -17.1858 0.0486742 -1.73584 68.9163 -3.25918 -1.73629 32.1576 -0.0190238 6.83444 -0.167439 7.21811 -89.7174 12.4378 -0.198267 0.587165 0.766762 -0.172226 0.595318 -21.7677 -0.365561 0.50044 -1.75506 -0.365562 0.500437 85.015 -44.2028 -110.368 12.6951 -45.5335 -11.911 -22.1349 18.3256 -105.853 27.0602 1.94162 3.41137 -100.034 -40.0239 59.8941 -23.6826 23.7695 3.31117 21.4127 -13.2452 -103.894 11.0187 0.960201 4.5626 10.2172 -4.87428 2.38881 -3.81292 -5.29986 -1.00697 
36.7965 97.4993 -247.099 -74.0303 -85.1747 -74.5571 -173.181 4.4058 87.4894 -13.1782 13.4108 -1.60094 60.5418 6.58373 14.7182 37.7662 9.23655 -13.9845 178.722 4.91192 91.0711 -17.1298 -0.554607 -1.91167 68.4881 -3.0884 -1.653 33.0672 0.086505 7.02876 -0.233582 7.19895 -89.7514 12.4765 -0.345766 0.536391 0.805515 -0.321822 0.551081 -21.7294 -0.490997 0.407673 -1.71678 -0.490987 0.407679 88.2518 -41.357 -106.001 8.24015 -43.8415 -22.8797 -10.0073 18.3578 -123.744 25.3373 2.49251 3.85626 -100.129 -40.479 59.9481 -22.2525 15.9424 6.61775 12.3727 -12.2424 -111.546 9.90019 0.479157 0.939048 9.40684 -0.894429 1.16535 -2.59598 -1.12744 0.708157 
36.6204 97.5476 -247.024 -79.7735 -84.4663 -80.2468 -173.021 4.08489 87.6734 -13.4839 12.4664 -1.55543 60.7422 6.25731 13.8267 38.0317 9.50347 -13.2888 178.911 4.45321 91.2682 -16.9322 -0.984883 -2.11115 68.5262 -3.15956 -1.69181 32.626 0.0278781 7.17956 -0.336787 7.17319 -89.728 12.5287 -0.539522 0.605708 0.857756 -0.512334 0.62886 -21.6777 -0.696616 0.41556 -1.66504 -0.696618 0.415556 89.2156 -41.3067 -104.382 8.0831 -34.8051 -29.6974 4.80768 5.51621 -135.982 24.0369 1.48152 -3.40567 -99.372 -40.396 61.1166 -20.6082 9.68904 10.1848 10.6884 -10.925 -114.14 7.51105 0.344458 0.669734 8.00896 2.66437 -0.232946 -1.95203 2.67238 1.43186 
36.451 97.4958 -246.98 -82.3972 -83.8245 -82.8615 -173.394 3.96084 87.4781 -13.787 11.3191 -1.07599 60.7951 6.41227 13.5966 38.4484 9.9244 -12.3725 178.955 4.51853 91.3405 -17.4255 -1.44523 -2.16841 68.8439 -3.20963 -1.70751 32.4949 0.0119428 7.16709 -0.293322 7.14601 -89.7369 12.5828 -0.457231 0.57891 0.911811 -0.431305 0.598464 -21.6234 -0.610073 0.414729 -1.61075 -0.610081 0.414726 89.595 -41.8809 -103.571 13.9462 -25.3733 -32.4079 20.9395 -14.7683 -137.949 23.6544 -0.0328428 -12.7982 -99.5228 -40.3566 60.8593 -19.3356 6.01233 12.3824 10.4907 -9.29853 -111.151 5.02404 0.21659 0.366853 7.48062 4.29628 -0.55821 -2.62451 4.33356 1.57366 
36.2894 97.4509 -246.901 -82.6125 -83.5293 -82.8023 -173.382 4.15026 87.7106 -14.2898 10.8507 -0.87594 61.0488 6.75201 13.8345 38.4934 9.93526 -12.8434 179.091 4.56676 91.6749 -17.5789 -1.76406 -2.11808 68.7915 -3.20827 -1.70964 32.7123 0.0502372 6.771 -0.168902 7.10176 -89.804 12.6707 -0.241847 0.42019 0.999672 -0.223123 0.430414 -21.5353 -0.356953 0.328074 -1.52264 -0.35696 0.32807 89.1317 -42.6896 -104.114 21.0452 -18.1333 -31.1835 32.7377 -26.9489 -134.853 27.1251 -0.419443 -15.0455 -100.048 -40.9381 60.2812 -18.0597 6.234 12.5478 12.2702 -8.50444 -105.672 4.3523 0.224888 0.994773 7.27927 3.14877 0.220033 -2.90806 3.04725 1.40937 
36.276 97.409 -246.834 -79.2364 -84.3483 -79.3485 -173.539 4.36179 87.7272 -14.1568 12.1298 -0.805207 60.502 6.91075 15.0607 39.1209 10.422 -13.7833 178.891 4.76458 91.6978 -17.7845 -1.14648 -1.79653 69.0904 -3.2601 -1.72727 32.2138 -0.0115948 6.8178 -0.237245 7.0582 -89.8135 12.7583 -0.381911 0.418061 1.08731 -0.363141 0.434455 -21.448 -0.489901 0.283952 -1.43537 -0.489908 0.283946 88.5008 -43.6777 -104.868 21.6228 -17.1408 -30.9946 31.9009 -24.1988 -132.104 27.4039 -0.463254 -14.9083 -100.291 -40.7147 59.7967 -18.8855 6.41148 13.0056 15.7477 -7.9111 -101.585 4.0762 0.309824 2.71353 6.90173 -0.295366 -0.043894 -2.19554 -0.254737 2.65326 
36.085 97.4407 -246.752 -84.7419 -83.0297 -85.1325 -173.119 3.34567 87.6247 -13.3602 11.3042 -1.224 60.4703 6.64764 14.8848 38.9776 10.32 -13.4559 179.134 4.42337 91.6225 -17.9191 -2.23345 -2.30937 69.3077 -3.41821 -1.80681 32.041 -0.0336838 6.85512 -0.189275 7.10125 -89.8454 12.6717 -0.302043 0.345036 1.00073 -0.286556 0.35799 -21.5345 -0.391776 0.238315 -1.52181 -0.39177 0.238313 88.1447 -42.7653 -105.734 17.6846 -21.6341 -33.4178 13.0555 -7.21866 -134.526 18.5479 0.26048 -9.5493 -100.349 -41.2581 59.9463 -20.7814 5.94069 13.8355 16.4877 -7.13149 -99.1063 4.12898 0.270986 2.01953 7.25847 -2.69185 1.76244 -2.38883 -2.9749 2.61018 
35.6335 97.4379 -246.617 -91.6952 -79.2696 -93.1404 -172.75 1.05144 87.0171 -11.4607 8.18505 -1.87033 60.0892 6.5607 14.9923 38.6591 10.077 -12.913 179.559 4.37973 91.0547 -19.7429 -5.34875 -3.62548 69.769 -3.59235 -1.87829 32.4214 0.0209723 6.58215 0.224117 7.17739 -89.7154 12.518 0.580815 0.501416 0.847097 0.602333 0.475357 -21.6877 0.403272 0.652796 -1.67509 0.403273 0.652783 87.822 -42.6901 -106.293 13.5844 -26.3796 -35.7076 2.90347 4.23712 -135.46 19.5384 0.893079 -4.49462 -100.921 -41.442 59.1326 -22.7728 6.23843 14.3126 13.9008 -6.57269 -97.3861 4.1462 0.21875 1.03894 7.57868 -3.87906 1.0185 -2.95636 -3.99789 3.89416 
35.5167 97.4493 -246.581 -91.9348 -78.834 -93.5355 -172.58 0.768249 87.0923 -11.2407 7.65588 -2.04409 60.2178 6.1887 14.0822 38.3808 9.85642 -12.501 179.732 4.31446 91.0631 -19.8487 -5.71643 -3.89296 69.8024 -3.64622 -1.90734 32.2438 0.0135796 6.15561 0.420996 7.18274 -89.7133 12.5066 0.972965 0.460207 0.835904 0.992285 0.416941 -21.7007 0.789668 0.731353 -1.68804 0.789672 0.731366 86.3366 -43.4502 -108.488 15.7965 -24.7744 -31.6801 14.9545 -7.26686 -133.77 24.1391 -0.037107 -11.532 -101.517 -42.0717 58.4889 -24.0022 8.55132 13.2874 13.6465 -6.52804 -95.7984 3.9362 0.151373 0.0173916 8.45167 -2.79396 1.03953 -3.70765 -2.96511 2.59945 
35.2373 97.4301 -246.469 -92.9651 -77.2574 -95.0785 -172.583 -0.281137 86.6187 -10.1326 6.47694 -2.25748 59.5883 6.27217 15.1695 39.2793 10.5329 -14.146 179.881 4.40159 90.7727 -20.6938 -6.71597 -4.43568 70.2044 -3.76833 -1.95389 32.3979 0.0108213 6.81728 0.715045 7.24316 -89.6417 12.3844 1.59113 0.534264 0.714377 1.61311 0.4637 -21.8259 1.35699 0.987829 -1.81325 1.357 0.987826 85.6696 -44.0373 -109.369 18.8895 -24.0078 -29.4655 30.3533 -19.2574 -133.291 25.6733 -0.238509 -14.1863 -101.546 -42.265 58.5309 -25.1248 10.1581 12.1744 14.9875 -6.72621 -95.3442 2.8337 0.138175 0.652085 9.86632 -0.756872 1.23233 -3.78356 -1.02263 1.55607 
34.7499 97.4205 -246.232 -93.4516 -73.4076 -96.6965 -172.435 -2.48221 85.8603 -7.71557 3.12318 -2.94158 59.0406 5.83308 14.6503 38.6603 10.0908 -12.7186 -179.688 4.64125 90.1111 -22.3307 -9.96918 -5.79646 70.7647 -4.0173 -2.05735 32.2446 -0.000155495 6.57751 1.15574 7.29469 -89.5324 12.2798 2.51877 0.65043 0.611134 2.54496 0.538875 -21.9385 2.20681 1.37765 -1.9259 2.20682 1.37766 86.6815 -43.3229 -107.967 17.8291 -28.6165 -32.3099 37.0832 -20.3023 -129.905 24.2611 -0.0332445 -14.0911 -102.373 -42.4669 57.3478 -26.2395 10.5984 12.1482 14.9689 -6.77359 -95.0903 3.31372 0.173347 0.911382 9.10408 -0.403165 1.75365 -2.89143 -0.771472 1.57404 
